SolitreoProjectFont.ufo
<glyph name="quotesingle" format="2">
  <advance width="186"/>
  <unicode hex="0027"/>
  <outline>
    <contour>
      <point x="88.0" y="564.0" type="curve" smooth="yes"/>
      <point x="91.4499333936" y="569.218574054"/>
      <point x="98.5710563049" y="575.059623402"/>
      <point x="110.720240248" y="575.059623402" type="curve" smooth="yes"/>
      <point x="117.72303537" y="575.059623402"/>
      <point x="126.396340825" y="573.119007877"/>
      <point x="137.0" y="568.0" type="curve" smooth="yes"/>
      <point x="150.675385082" y="561.398089961"/>
      <point x="155.527611375" y="552.766911616"/>
      <point x="155.527611375" y="545.06526283" type="curve" smooth="yes"/>
      <point x="155.527611375" y="540.964414406"/>
      <point x="154.151919851" y="537.127103965"/>
      <point x="152.0" y="534.0" type="curve" smooth="yes"/>
      <point x="124.475585938" y="494.000976562"/>
      <point x="63.2626953125" y="427.950195312"/>
      <point x="32.0" y="421.0" type="curve" smooth="yes"/>
      <point x="28.7129988007" y="420.269351482"/>
      <point x="25.5903419201" y="419.930913827"/>
      <point x="22.6775712466" y="419.930913827" type="curve" smooth="yes"/>
      <point x="9.21586598456" y="419.930913827"/>
      <point x="0.237188894965" y="427.159714441"/>
      <point x="0.237188894965" y="436.309115457" type="curve" smooth="yes"/>
      <point x="0.237188894965" y="437.82791347"/>
      <point x="0.48460448829" y="439.39963537"/>
      <point x="1.0" y="441.0" type="curve" smooth="yes"/>
      <point x="5.8310546875" y="456.0"/>
      <point x="37.7578125" y="488.000976562"/>
    </contour>
  </outline>
</glyph>
<glyph name="period" format="2">
  <advance width="180"/>
  <unicode hex="002E"/>
  <outline>
    <contour>
      <point x="0.0" y="16.0" type="curve" smooth="yes"/>
      <point x="0.0" y="29.0"/>
      <point x="6.09486607143" y="40.0"/>
      <point x="11.0" y="64.0" type="curve" smooth="yes"/>
      <point x="15.3734111702" y="85.3983694661"/>
      <point x="36.0" y="87.0"/>
      <point x="56.0" y="87.0" type="curve" smooth="yes"/>
      <point x="57.0" y="87.0"/>
      <point x="58.0" y="87.0"/>
      <point x="59.0" y="87.0" type="curve" smooth="yes"/>
      <point x="79.0" y="87.0"/>
      <point x="92.0" y="87.0"/>
      <point x="92.0" y="66.0" type="curve" smooth="yes"/>
      <point x="92.0" y="26.0"/>
      <point x="53.0" y="0.0"/>
      <point x="20.0" y="0.0" type="curve" smooth="yes"/>
      <point x="2.0" y="0.0"/>
      <point x="0.0" y="5.0"/>
    </contour>
  </outline>
</glyph>
<glyph name="one" format="2">
  <advance width="285"/>
  <unicode hex="0031"/>
  <outline>
    <contour>
      <point x="240.259765625" y="501.274414062" type="curve" smooth="yes"/>
      <point x="250.450195312" y="517.84375"/>
      <point x="254.922851562" y="525.287109375"/>
      <point x="263.6953125" y="528.64453125" type="curve" smooth="yes"/>
      <point x="265.174804688" y="529.2109375"/>
      <point x="266.7421875" y="529.552734375"/>
      <point x="268.330078125" y="529.692382812" type="curve" smooth="yes"/>
      <point x="268.881557939" y="529.740590244"/>
      <point x="269.435739455" y="529.76427693"/>
      <point x="269.989933271" y="529.76427693" type="curve" smooth="yes"/>
      <point x="277.631147508" y="529.76427693"/>
      <point x="285.274699926" y="525.261237916"/>
      <point x="285.87109375" y="518.44140625" type="curve" smooth="yes"/>
      <point x="285.895813052" y="518.158823727"/>
      <point x="285.908420396" y="517.872290244"/>
      <point x="285.908420396" y="517.58194734" type="curve" smooth="yes"/>
      <point x="285.908420396" y="516.277917514"/>
      <point x="285.654102914" y="514.897043402"/>
      <point x="285.100585938" y="513.452148438" type="curve" smooth="yes"/>
      <point x="261.2109375" y="451.1328125"/>
      <point x="171.063476562" y="232.013671875"/>
      <point x="101.49609375" y="7.525390625" type="curve" smooth="yes"/>
      <point x="96.5927734375" y="-8.2998046875"/>
      <point x="84.744140625" y="-12.775390625"/>
      <point x="70.5791015625" y="-14.0146484375" type="curve" smooth="yes"/>
      <point x="66.0703125" y="-14.4091796875"/>
      <point x="61.3251953125" y="-14.4755859375"/>
      <point x="56.4970703125" y="-14.4755859375" type="curve" smooth="yes"/>
      <point x="55.9970703125" y="-14.4750976562"/>
      <point x="55.7470703125" y="-14.4748535156"/>
      <point x="55.4970703125" y="-14.4748535156" type="curve" smooth="yes"/>
      <point x="55.2470703125" y="-14.4748535156"/>
      <point x="54.9970703125" y="-14.4750976562"/>
      <point x="54.4970703125" y="-14.4755859375" type="curve" smooth="yes"/>
      <point x="36.453125" y="-14.4755859375"/>
      <point x="21.7978515625" y="-14.41015625"/>
      <point x="20.4521484375" y="0.9658203125" type="curve" smooth="yes"/>
      <point x="20.3854139536" y="1.73035564198"/>
      <point x="20.3513401447" y="2.53268697279"/>
      <point x="20.3513401447" y="3.37469848335" type="curve" smooth="yes"/>
      <point x="20.3513401447" y="4.36860816017"/>
      <point x="20.3988166194" y="5.41780590469"/>
      <point x="20.49609375" y="6.525390625" type="curve" smooth="yes"/>
      <point x="24.115234375" y="47.7451171875"/>
      <point x="86.9287109375" y="224.325195312"/>
      <point x="147.23828125" y="344.490234375" type="curve"/>
      <point x="99.4267578125" y="303.678710938"/>
      <point x="53.2421875" y="272.865234375"/>
      <point x="33.5712890625" y="267.594726562" type="curve" smooth="yes"/>
      <point x="31.3955078125" y="267.010742188"/>
      <point x="29.3662109375" y="266.650390625"/>
      <point x="27.4814453125" y="266.485351562" type="curve" smooth="yes"/>
      <point x="26.6673044376" y="266.414140896"/>
      <point x="25.8804156761" y="266.379581464"/>
      <point x="25.1207424856" y="266.379581464" type="curve" smooth="yes"/>
      <point x="15.0978490992" y="266.379581464"/>
      <point x="9.81246497001" y="272.395462355"/>
      <point x="9.1806640625" y="279.623046875" type="curve" smooth="yes"/>
      <point x="9.13754943899" y="280.115188046"/>
      <point x="9.11600313067" y="280.612950179"/>
      <point x="9.11600313067" y="281.114811658" type="curve" smooth="yes"/>
      <point x="9.11600313067" y="284.011788416"/>
      <point x="9.83395473221" y="287.045360797"/>
      <point x="11.265625" y="289.922851562" type="curve" smooth="yes"/>
      <point x="19.875" y="307.244140625"/>
      <point x="133.057617188" y="346.47265625"/>
    </contour>
  </outline>
</glyph>
<glyph name="eight" format="2">
  <advance width="342"/>
  <unicode hex="0038"/>
  <outline>
    <contour>
      <point x="138.062050505" y="244.447423301" type="curve"/>
      <point x="97.6396512322" y="211.383366123"/>
      <point x="65.1240430459" y="180.677643862"/>
      <point x="55.0" y="146.0" type="curve" smooth="yes"/>
      <point x="51.6240566145" y="134.436461413"/>
      <point x="50.1175556802" y="123.623540833"/>
      <point x="50.1175556802" y="113.650703762" type="curve" smooth="yes"/>
      <point x="50.1175556802" y="66.3843065447"/>
      <point x="83.9580702547" y="37.9886963017"/>
      <point x="112.999022744" y="37.9886963017" type="curve" smooth="yes"/>
      <point x="113.333337529" y="37.9886963017"/>
      <point x="113.667016263" y="37.9924593575"/>
      <point x="114.0" y="38.0" type="curve" smooth="yes"/>
      <point x="162.406541152" y="39.0966261664"/>
      <point x="191.165327997" y="93.9290342561"/>
      <point x="191.165327997" y="142.238775416" type="curve" smooth="yes"/>
      <point x="191.165327997" y="184.463676249"/>
      <point x="165.967397126" y="214.025746268"/>
    </contour>
    <contour>
      <point x="102.777282184" y="284.651905916" type="curve"/>
      <point x="81.4727634419" y="311.95626378"/>
      <point x="64.7255030773" y="343.547147011"/>
      <point x="64.7255030773" y="386.636121416" type="curve" smooth="yes"/>
      <point x="64.7255030773" y="389.8318591"/>
      <point x="64.8176230299" y="393.090843166"/>
      <point x="65.0068359375" y="396.416015625" type="curve" smooth="yes"/>
      <point x="68.276770498" y="453.880891998"/>
      <point x="118.014662124" y="499.608870108"/>
      <point x="172.565429688" y="501.087890625" type="curve" smooth="yes"/>
      <point x="174.067917292" y="501.128627174"/>
      <point x="175.558102873" y="501.148741197"/>
      <point x="177.035753486" y="501.148741197" type="curve" smooth="yes"/>
      <point x="234.99365474" y="501.148741197"/>
      <point x="273.667206916" y="470.204435424"/>
      <point x="279.0" y="439.0" type="curve" smooth="yes"/>
      <point x="279.368932631" y="436.841218609"/>
      <point x="279.633669651" y="434.761457197"/>
      <point x="279.801428376" y="432.768421556" type="curve"/>
      <point x="283.98245323" y="437.759522583"/>
      <point x="288.054665672" y="442.878858756"/>
      <point x="292.002929688" y="448.137695312" type="curve" smooth="yes"/>
      <point x="303.921561087" y="464.012554446"/>
      <point x="312.921956952" y="469.891642659"/>
      <point x="319.188533476" y="469.891642659" type="curve" smooth="yes"/>
      <point x="326.672229813" y="469.891642659"/>
      <point x="330.257032125" y="461.507057196"/>
      <point x="330.257032125" y="451.749287558" type="curve" smooth="yes"/>
      <point x="330.257032125" y="445.04309232"/>
      <point x="328.563800097" y="437.688292439"/>
      <point x="325.279296875" y="431.9609375" type="curve" smooth="yes"/>
      <point x="290.309811489" y="370.982871329"/>
      <point x="237.937912593" y="324.863780559"/>
      <point x="188.349658249" y="284.781786082" type="curve"/>
      <point x="225.054216333" y="245.264204637"/>
      <point x="264.123328213" y="204.57708936"/>
      <point x="264.123328213" y="144.158369539" type="curve" smooth="yes"/>
      <point x="264.123328213" y="141.346215417"/>
      <point x="264.038689561" y="138.491315085"/>
      <point x="263.865234375" y="135.591796875" type="curve" smooth="yes"/>
      <point x="259.190878546" y="57.4541513745"/>
      <point x="189.333651517" y="-10.3307893298"/>
      <point x="108.565173847" y="-10.3307893298" type="curve" smooth="yes"/>
      <point x="106.626956607" y="-10.3307893298"/>
      <point x="104.682455954" y="-10.2917543166"/>
      <point x="102.732421875" y="-10.212890625" type="curve" smooth="yes"/>
      <point x="57.4330245376" y="-8.38122235082"/>
      <point x="-2.05798385543" y="29.4830916562"/>
      <point x="-2.05798385543" y="112.17524319" type="curve" smooth="yes"/>
      <point x="-2.05798385543" y="122.81676742"/>
      <point x="-1.07277019869" y="134.200672707"/>
      <point x="1.0546875" y="146.345703125" type="curve" smooth="yes"/>
      <point x="11.2010824519" y="204.268488334"/>
      <point x="52.0841097853" y="245.178922959"/>
    </contour>
    <contour>
      <point x="258.756372771" y="409.542149024" type="curve"/>
      <point x="254.972869932" y="412.804646025"/>
      <point x="251.007588474" y="418.114474923"/>
      <point x="247.15234375" y="425.783203125" type="curve" smooth="yes"/>
      <point x="238.674741942" y="442.64638855"/>
      <point x="218.232000083" y="467.822888443"/>
      <point x="185.451845115" y="467.822888443" type="curve" smooth="yes"/>
      <point x="180.66027702" y="467.822888443"/>
      <point x="175.605101626" y="467.284954836"/>
      <point x="170.28515625" y="466.104492188" type="curve" smooth="yes"/>
      <point x="139.041583355" y="459.171738524"/>
      <point x="125.154832654" y="433.175212901"/>
      <point x="125.154832654" y="400.703083465" type="curve" smooth="yes"/>
      <point x="125.154832654" y="398.842066616"/>
      <point x="125.200444716" y="396.959780167"/>
      <point x="125.291015625" y="395.05859375" type="curve" smooth="yes"/>
      <point x="126.581656809" y="367.966566875"/>
      <point x="138.500539655" y="345.008542562"/>
      <point x="154.859718142" y="323.412352585" type="curve"/>
      <point x="190.113937101" y="349.238574288"/>
      <point x="226.596382567" y="376.571442904"/>
    </contour>
  </outline>
</glyph>
<glyph name="bracketright" format="2">
  <advance width="148"/>
  <unicode hex="005D"/>
  <outline>
    <contour>
      <point x="46.880859375" y="623.5078125" type="curve" smooth="yes"/>
      <point x="83.1286971915" y="614.10984298"/>
      <point x="104.407061572" y="601.144760239"/>
      <point x="139.072831084" y="601.144760239" type="curve" smooth="yes"/>
      <point x="143.800633188" y="601.144760239"/>
      <point x="148.777443289" y="601.385912969"/>
      <point x="154.075195312" y="601.91015625" type="curve" smooth="yes"/>
      <point x="155.775412019" y="602.07835797"/>
      <point x="157.400954685" y="602.155838434"/>
      <point x="158.949493636" y="602.155838434" type="curve" smooth="yes"/>
      <point x="165.294757244" y="602.155838434"/>
      <point x="170.347115476" y="600.854928346"/>
      <point x="173.946289062" y="599.1640625" type="curve" smooth="yes"/>
      <point x="180.057617188" y="596.293945312"/>
      <point x="183.0" y="591.5"/>
      <point x="183.0" y="586.0" type="curve" smooth="yes"/>
      <point x="183.0" y="584.472550879"/>
      <point x="182.772998648" y="582.890743514"/>
      <point x="182.323817758" y="581.280691727" type="curve" smooth="yes"/>
      <point x="174.292085564" y="507.202439307"/>
      <point x="123.164790248" y="104.914163251"/>
      <point x="103.322265625" y="-125.134765625" type="curve" smooth="yes"/>
      <point x="101.93359375" y="-141.234375"/>
      <point x="86.251953125" y="-144.0"/>
      <point x="72.0" y="-144.0" type="curve" smooth="yes"/>
      <point x="66.9892578125" y="-144.0"/>
      <point x="61.7587890625" y="-143.583007812"/>
      <point x="56.576171875" y="-143.129882812" type="curve" smooth="yes"/>
      <point x="55.580078125" y="-143.041992188"/>
      <point x="55.580078125" y="-143.041992188"/>
      <point x="54.583984375" y="-142.955078125" type="curve" smooth="yes"/>
      <point x="40.0719177292" y="-141.685007695"/>
      <point x="28.7301180691" y="-140.692928187"/>
      <point x="24.3470710334" y="-132.163105832" type="curve"/>
      <point x="9.95737539979" y="-141.797381893"/>
      <point x="-9.25385441693" y="-145.162739068"/>
      <point x="-29.5104431066" y="-145.162739068" type="curve" smooth="yes"/>
      <point x="-60.3647890607" y="-145.162739068"/>
      <point x="-93.6444350869" y="-137.35489316"/>
      <point x="-116.004882812" y="-132.0" type="curve" smooth="yes"/>
      <point x="-123.209960938" y="-130.274414062"/>
      <point x="-130.029296875" y="-124.557617188"/>
      <point x="-130.922851562" y="-114.3359375" type="curve" smooth="yes"/>
      <point x="-130.988267298" y="-113.589446201"/>
      <point x="-131.022050309" y="-112.818894578"/>
      <point x="-131.022050309" y="-112.024086503" type="curve" smooth="yes"/>
      <point x="-131.022050309" y="-107.657472958"/>
      <point x="-130.002371653" y="-102.558722583"/>
      <point x="-127.606445312" y="-96.6953125" type="curve" smooth="yes"/>
      <point x="-120.837890625" y="-80.134765625"/>
      <point x="-109.557617188" y="-71.5712890625"/>
      <point x="-100.461914062" y="-70.775390625" type="curve" smooth="yes"/>
      <point x="-99.9954654108" y="-70.7344551775"/>
      <point x="-99.5348097988" y="-70.7140181765"/>
      <point x="-99.0808279426" y="-70.7140181765" type="curve" smooth="yes"/>
      <point x="-97.8886098437" y="-70.7140181765"/>
      <point x="-96.7424179049" y="-70.8549638003"/>
      <point x="-95.658203125" y="-71.1357421875" type="curve" smooth="yes"/>
      <point x="-59.4103653088" y="-80.5337117076"/>
      <point x="-38.132000929" y="-93.4987944481"/>
      <point x="-3.46623141634" y="-93.4987944481" type="curve" smooth="yes"/>
      <point x="1.26157068778" y="-93.4987944481"/>
      <point x="6.23838078912" y="-93.2576417188"/>
      <point x="11.5361328125" y="-92.7333984375" type="curve" smooth="yes"/>
      <point x="13.2363495197" y="-92.5651967171"/>
      <point x="14.861892185" y="-92.4877162534"/>
      <point x="16.4104311366" y="-92.4877162534" type="curve" smooth="yes"/>
      <point x="19.3793428961" y="-92.4877162534"/>
      <point x="22.0652054223" y="-92.7725179177"/>
      <point x="24.4516007165" y="-93.2488088235" type="curve"/>
      <point x="37.0935913324" y="29.4825667451"/>
      <point x="104.61795327" y="423.451375106"/>
      <point x="142.681150327" y="552.486575375" type="curve"/>
      <point x="133.401513842" y="550.354672562"/>
      <point x="123.350786862" y="549.480815613"/>
      <point x="113.028619417" y="549.480815613" type="curve" smooth="yes"/>
      <point x="82.1742734609" y="549.480815613"/>
      <point x="48.8946274296" y="557.288661522"/>
      <point x="26.5341796875" y="562.643554688" type="curve" smooth="yes"/>
      <point x="19.3291015625" y="564.369140625"/>
      <point x="12.509765625" y="570.0859375"/>
      <point x="11.6162109375" y="580.307617188" type="curve" smooth="yes"/>
      <point x="11.5507952012" y="581.054108487"/>
      <point x="11.5170121902" y="581.824660109"/>
      <point x="11.5170121902" y="582.619468184" type="curve" smooth="yes"/>
      <point x="11.5170121902" y="586.986081729"/>
      <point x="12.5366908463" y="592.084832104"/>
      <point x="14.9326171875" y="597.948242188" type="curve" smooth="yes"/>
      <point x="21.701171875" y="614.508789062"/>
      <point x="32.9814453125" y="623.072265625"/>
      <point x="42.0771484375" y="623.868164062" type="curve" smooth="yes"/>
      <point x="42.543597089" y="623.909099509"/>
      <point x="43.0042527012" y="623.929536511"/>
      <point x="43.4582345575" y="623.929536511" type="curve" smooth="yes"/>
      <point x="44.6504526566" y="623.929536511"/>
      <point x="45.7966445952" y="623.788590887"/>
    </contour>
  </outline>
</glyph>
<glyph name="grave" format="2">
  <advance width="186"/>
  <unicode hex="0060"/>
  <outline>
    <contour>
      <point x="87.0" y="484.0" type="curve" smooth="yes"/>
      <point x="36.7578125" y="559.999023438"/>
      <point x="4.8310546875" y="592.0"/>
      <point x="0.0" y="607.0" type="curve" smooth="yes"/>
      <point x="-0.51539551171" y="608.60036463"/>
      <point x="-0.762811105035" y="610.17208653"/>
      <point x="-0.762811105035" y="611.690884543" type="curve" smooth="yes"/>
      <point x="-0.762811105035" y="620.840285559"/>
      <point x="8.21586598456" y="628.069086173"/>
      <point x="21.6775712466" y="628.069086173" type="curve" smooth="yes"/>
      <point x="24.5903419201" y="628.069086173"/>
      <point x="27.7129988007" y="627.730648518"/>
      <point x="31.0" y="627.0" type="curve" smooth="yes"/>
      <point x="62.2626953125" y="620.049804688"/>
      <point x="123.475585938" y="553.999023438"/>
      <point x="151.0" y="514.0" type="curve" smooth="yes"/>
      <point x="153.151919851" y="510.872896035"/>
      <point x="154.527611375" y="507.035585594"/>
      <point x="154.527611375" y="502.93473717" type="curve" smooth="yes"/>
      <point x="154.527611375" y="495.233088384"/>
      <point x="149.675385082" y="486.601910039"/>
      <point x="136.0" y="480.0" type="curve" smooth="yes"/>
      <point x="125.396340825" y="474.880992123"/>
      <point x="116.72303537" y="472.940376598"/>
      <point x="109.720240248" y="472.940376598" type="curve" smooth="yes"/>
      <point x="97.5710563049" y="472.940376598"/>
      <point x="90.4499333936" y="478.781425946"/>
    </contour>
  </outline>
</glyph>
<glyph name="bar" format="2">
  <advance width="191"/>
  <unicode hex="007C"/>
  <outline>
    <contour>
      <point x="140.0" y="624.0" type="curve" smooth="yes"/>
      <point x="142.015625" y="625.716796875"/>
      <point x="144.1640625" y="626.950195312"/>
      <point x="146.307617188" y="627.73046875" type="curve" smooth="yes"/>
      <point x="148.209998319" y="628.422889198"/>
      <point x="150.11067984" y="628.758887288"/>
      <point x="151.916770435" y="628.758887288" type="curve" smooth="yes"/>
      <point x="156.817560042" y="628.758887288"/>
      <point x="161.021879457" y="626.28494329"/>
      <point x="162.673828125" y="621.745117188" type="curve" smooth="yes"/>
      <point x="163.157430552" y="620.417210372"/>
      <point x="163.422513181" y="618.912732605"/>
      <point x="163.422513181" y="617.241424269" type="curve" smooth="yes"/>
      <point x="163.422513181" y="616.668386681"/>
      <point x="163.391350535" y="616.075736786"/>
      <point x="163.327148438" y="615.463867188" type="curve" smooth="yes"/>
      <point x="156.477539062" y="550.184570312"/>
      <point x="100.138671875" y="109.42578125"/>
      <point x="80.0" y="-124.0" type="curve" smooth="yes"/>
      <point x="78.611328125" y="-140.099609375"/>
      <point x="62.9296875" y="-142.865234375"/>
      <point x="48.677734375" y="-142.865234375" type="curve" smooth="yes"/>
      <point x="43.6669921875" y="-142.865234375"/>
      <point x="38.4365234375" y="-142.448242188"/>
      <point x="33.25390625" y="-141.995117188" type="curve" smooth="yes"/>
      <point x="32.2578125" y="-141.907226562"/>
      <point x="32.2578125" y="-141.907226562"/>
      <point x="31.26171875" y="-141.8203125" type="curve" smooth="yes"/>
      <point x="12.515625" y="-140.1796875"/>
      <point x="-0.9404296875" y="-139.002929688"/>
      <point x="-0.9404296875" y="-121.443359375" type="curve" smooth="yes"/>
      <point x="-0.9404296875" y="-46.107421875"/>
      <point x="107.53475299" y="596.347914611"/>
    </contour>
  </outline>
</glyph>
<glyph name="asciitilde" format="2">
  <advance width="441"/>
  <unicode hex="007E"/>
  <outline>
    <contour>
      <point x="144.0" y="219.0" type="curve" smooth="yes"/>
      <point x="76.0" y="219.0"/>
      <point x="50.0" y="189.0"/>
      <point x="15.0" y="189.0" type="curve" smooth="yes"/>
      <point x="7.50381128725" y="189.0"/>
      <point x="4.96634954889" y="191.643130358"/>
      <point x="4.96634954889" y="196.903836365" type="curve" smooth="yes"/>
      <point x="4.96634954889" y="197.257403113"/>
      <point x="4.9778113869" y="197.622793577"/>
      <point x="5.0" y="198.0" type="curve" smooth="yes"/>
      <point x="5.86577629013" y="212.718196932"/>
      <point x="62.8244720409" y="272.065998987"/>
      <point x="165.076910818" y="272.065998987" type="curve" smooth="yes"/>
      <point x="167.034694851" y="272.065998987"/>
      <point x="169.009083178" y="272.044242596"/>
      <point x="171.0" y="272.0" type="curve" smooth="yes"/>
      <point x="216.0" y="271.0"/>
      <point x="256.0" y="240.0"/>
      <point x="317.0" y="240.0" type="curve" smooth="yes"/>
      <point x="367.0" y="240.0"/>
      <point x="390.0" y="267.0"/>
      <point x="425.0" y="267.0" type="curve" smooth="yes"/>
      <point x="433.0" y="267.0"/>
      <point x="435.0" y="264.0"/>
      <point x="435.0" y="258.0" type="curve" smooth="yes"/>
      <point x="435.0" y="237.491956672"/>
      <point x="370.117020948" y="188.915081739"/>
      <point x="283.286119483" y="188.915081739" type="curve" smooth="yes"/>
      <point x="281.203178626" y="188.915081739"/>
      <point x="279.107607905" y="188.943035151"/>
      <point x="277.0" y="189.0" type="curve" smooth="yes"/>
      <point x="240.0" y="190.0"/>
      <point x="173.0" y="219.0"/>
    </contour>
  </outline>
</glyph>
<glyph name="uni05D0" format="2">
  <advance width="140"/>
  <unicode hex="05D0"/>
  <outline>
    <contour>
      <point x="223.0" y="505.0" type="curve" smooth="yes"/>
      <point x="181.600585938" y="413.999023438"/>
      <point x="99.0" y="-1.0"/>
      <point x="-49.0" y="-1.0" type="curve" smooth="yes"/>
      <point x="-67.1396484375" y="-1.0"/>
      <point x="-73.7509765625" y="6.5068359375"/>
      <point x="-73.7509765625" y="14.8701171875" type="curve" smooth="yes"/>
      <point x="-73.7509765625" y="24.4873046875"/>
      <point x="-65.0078125" y="35.2353515625"/>
      <point x="-55.0" y="37.0" type="curve" smooth="yes"/>
      <point x="41.0" y="53.9248046875"/>
      <point x="147.0" y="629.017578125"/>
      <point x="273.198242188" y="629.017578125" type="curve" smooth="yes"/>
      <point x="303.694335938" y="629.017578125"/>
      <point x="315.061523438" y="611.529296875"/>
      <point x="315.061523438" y="588.9296875" type="curve" smooth="yes"/>
      <point x="315.061523438" y="557.401367188"/>
      <point x="299.455078125" y="520.943359375"/>
      <point x="267.727539062" y="520.943359375" type="curve" smooth="yes"/>
      <point x="264.646484375" y="520.943359375"/>
      <point x="261.405273438" y="521.283203125"/>
      <point x="258.0" y="522.0" type="curve" smooth="yes"/>
      <point x="254.720703125" y="522.690429688"/>
      <point x="251.5625" y="523.076171875"/>
      <point x="248.547851562" y="523.076171875" type="curve" smooth="yes"/>
      <point x="237.888671875" y="523.076171875"/>
      <point x="229.028320312" y="518.251953125"/>
    </contour>
  </outline>
</glyph>
<glyph name="uni05D3" format="2">
  <advance width="204"/>
  <unicode hex="05D3"/>
  <outline>
    <contour>
      <point x="-18.0" y="314.0" type="curve" smooth="yes"/>
      <point x="49.8076171875" y="309.165039062"/>
      <point x="175.0" y="282.004882812"/>
      <point x="175.0" y="177.0" type="curve" smooth="yes"/>
      <point x="175.0" y="103.97265625"/>
      <point x="122.0" y="0.0"/>
      <point x="25.0" y="0.0" type="curve" smooth="yes"/>
      <point x="6.86023564441" y="0.0"/>
      <point x="0.248963260772" y="7.50715063509"/>
      <point x="0.248963260772" y="15.8699332975" type="curve" smooth="yes"/>
      <point x="0.248963260772" y="25.4869059087"/>
      <point x="8.99195742289" y="36.2353983522"/>
      <point x="19.0" y="38.0" type="curve" smooth="yes"/>
      <point x="71.0" y="47.1685546875"/>
      <point x="87.2080078125" y="103.0"/>
      <point x="94.0" y="168.0" type="curve" smooth="yes"/>
      <point x="94.5080228792" y="172.861826433"/>
      <point x="94.754153819" y="177.485271244"/>
      <point x="94.754153819" y="181.88377216" type="curve" smooth="yes"/>
      <point x="94.754153819" y="256.194288293"/>
      <point x="24.5023642097" y="266.300315371"/>
      <point x="-40.0" y="277.0" type="curve" smooth="yes"/>
      <point x="-145.010958513" y="294.419601833"/>
      <point x="-177.744168764" y="328.348033412"/>
      <point x="-177.744168764" y="345.554806109" type="curve" smooth="yes"/>
      <point x="-177.744168764" y="352.005132022"/>
      <point x="-173.144219157" y="356.105587953"/>
      <point x="-166.027530737" y="356.105587953" type="curve" smooth="yes"/>
      <point x="-165.372468573" y="356.105587953"/>
      <point x="-164.69608346" y="356.070847036"/>
      <point x="-164.0" y="356.0" type="curve" smooth="yes"/>
      <point x="-146.0" y="354.16796875"/>
      <point x="-89.9999924838" y="319.133894474"/>
    </contour>
  </outline>
</glyph>
<glyph name="uni05D9" format="2">
  <advance width="135"/>
  <unicode hex="05D9"/>
  <outline>
    <contour>
      <point x="0.0" y="92.0" type="curve" smooth="yes"/>
      <point x="0.0" y="105.0"/>
      <point x="0.0" y="94.0"/>
      <point x="24.0" y="181.0" type="curve" smooth="yes"/>
      <point x="30.0" y="202.0"/>
      <point x="49.0" y="204.0"/>
      <point x="69.0" y="204.0" type="curve" smooth="yes"/>
      <point x="70.0" y="204.0"/>
      <point x="71.0" y="204.0"/>
      <point x="72.0" y="204.0" type="curve" smooth="yes"/>
      <point x="92.0" y="204.0"/>
      <point x="105.0" y="204.0"/>
      <point x="105.0" y="183.0" type="curve" smooth="yes"/>
      <point x="105.0" y="143.0"/>
      <point x="53.0" y="76.0"/>
      <point x="20.0" y="76.0" type="curve" smooth="yes"/>
      <point x="2.0" y="76.0"/>
      <point x="0.0" y="81.0"/>
    </contour>
  </outline>
</glyph>
<glyph name="uni05DF" format="2">
  <advance width="219"/>
  <unicode hex="05DF"/>
  <outline>
    <contour>
      <point x="180.0" y="237.0" type="curve" smooth="yes"/>
      <point x="199.0" y="237.0"/>
      <point x="199.0" y="231.0"/>
      <point x="199.0" y="220.0" type="curve" smooth="yes"/>
      <point x="199.0" y="200.764648438"/>
      <point x="-11.056640625" y="-130.145507812"/>
      <point x="-96.1953125" y="-352.571289062" type="curve" smooth="yes"/>
      <point x="-102.081614279" y="-367.949298474"/>
      <point x="-114.337903958" y="-371.358324868"/>
      <point x="-128.55133663" y="-371.358324868" type="curve" smooth="yes"/>
      <point x="-133.190665064" y="-371.358324868"/>
      <point x="-138.038507316" y="-370.995127537"/>
      <point x="-142.94140625" y="-370.56640625" type="curve" smooth="yes"/>
      <point x="-143.9375" y="-370.478515625"/>
      <point x="-143.9375" y="-370.478515625"/>
      <point x="-144.93359375" y="-370.391601562" type="curve" smooth="yes"/>
      <point x="-163.680298323" y="-368.751425714"/>
      <point x="-177.135783578" y="-367.574663845"/>
      <point x="-177.135783578" y="-350.01377236" type="curve" smooth="yes"/>
      <point x="-177.135783578" y="-273.399586456"/>
      <point x="129.153499138" y="237.0"/>
    </contour>
  </outline>
</glyph>
<glyph name="uni05E4" format="2">
  <advance width="348"/>
  <unicode hex="05E4"/>
  <outline>
    <contour>
      <point x="-12.0" y="88.0" type="curve" smooth="yes"/>
      <point x="-12.0" y="101.0"/>
      <point x="6.20644162711" y="141.222545695"/>
      <point x="31.0" y="228.0" type="curve" smooth="yes"/>
      <point x="37.0" y="249.0"/>
      <point x="56.0" y="251.0"/>
      <point x="76.0" y="251.0" type="curve" smooth="yes"/>
      <point x="77.0" y="251.0"/>
      <point x="78.0" y="251.0"/>
      <point x="79.0" y="251.0" type="curve" smooth="yes"/>
      <point x="99.0" y="251.0"/>
      <point x="112.0" y="251.0"/>
      <point x="112.0" y="230.0" type="curve" smooth="yes"/>
      <point x="112.0" y="227.667525234"/>
      <point x="111.871279828" y="225.226481497"/>
      <point x="111.621777005" y="222.691297905" type="curve"/>
      <point x="134.365208131" y="238.035669373"/>
      <point x="165.561883658" y="250.906580296"/>
      <point x="196.605287484" y="250.926018392" type="curve" smooth="yes"/>
      <point x="283.251712123" y="250.926018392"/>
      <point x="318.009973576" y="213.62296058"/>
      <point x="318.009973576" y="138.224893687" type="curve" smooth="yes"/>
      <point x="318.009973576" y="65.2877961938"/>
      <point x="259.962271143" y="-40.0"/>
      <point x="75.0" y="-40.0" type="curve" smooth="yes"/>
      <point x="-22.3552172555" y="-40.0"/>
      <point x="-214.267038134" y="-58.6053282262"/>
      <point x="-280.0" y="-94.0" type="curve" smooth="yes"/>
      <point x="-281.648329508" y="-94.8875620427"/>
      <point x="-283.13001648" y="-95.2839504545"/>
      <point x="-284.439564221" y="-95.2839504545" type="curve" smooth="yes"/>
      <point x="-289.150210852" y="-95.2839504545"/>
      <point x="-291.633457349" y="-90.1548721198"/>
      <point x="-291.633457349" y="-84.308539575" type="curve" smooth="yes"/>
      <point x="-291.633457349" y="-60.4049520172"/>
      <point x="-235.532962076" y="-28.0813947124"/>
      <point x="-150.0" y="-13.0" type="curve" smooth="yes"/>
      <point x="-58.0" y="3.2216796875"/>
      <point x="47.078125" y="3.896484375"/>
      <point x="76.0" y="6.0" type="curve" smooth="yes"/>
      <point x="191.0" y="14.3642578125"/>
      <point x="237.298627288" y="76.0"/>
      <point x="240.75" y="131.799804688" type="curve" smooth="yes"/>
      <point x="240.951868661" y="135.063500843"/>
      <point x="241.050625955" y="138.19728543"/>
      <point x="241.050625955" y="141.205651977" type="curve" smooth="yes"/>
      <point x="241.050625955" y="193.687822866"/>
      <point x="210.994620398" y="208.0"/>
      <point x="174.0" y="208.0" type="curve" smooth="yes"/>
      <point x="146.594368613" y="208.0"/>
      <point x="117.533146382" y="191.842137472"/>
      <point x="98.8936514163" y="177.162682938" type="curve"/>
      <point x="78.0609689873" y="126.971222902"/>
      <point x="36.806762675" y="72.0"/>
      <point x="8.0" y="72.0" type="curve" smooth="yes"/>
      <point x="-12.0" y="72.0"/>
      <point x="-12.0" y="77.0"/>
    </contour>
  </outline>
</glyph>
<glyph name="quotedbl_quotedblright" format="2">
  <outline>
    <contour>
      <point x="-151.0" y="467.0" type="curve" smooth="yes"/>
      <point x="-121.604132904" y="430.018102686"/>
      <point x="-58.0392272148" y="420.910947382"/>
      <point x="-17.7937675045" y="420.910947382" type="curve" smooth="yes"/>
      <point x="-15.5975721702" y="420.910947382"/>
      <point x="-13.4708194999" y="420.938067457"/>
      <point x="-11.4228515625" y="420.989257812" type="curve" smooth="yes"/>
      <point x="77.9775390625" y="423.223632812"/>
      <point x="156.62890625" y="459.002929688"/>
      <point x="204.0" y="516.0" type="curve" smooth="yes"/>
      <point x="221.1953125" y="536.689453125"/>
      <point x="236.109375" y="546.749023438"/>
      <point x="245.524414062" y="548.409179688" type="curve" smooth="yes"/>
      <point x="246.665169056" y="548.61036182"/>
      <point x="247.747932673" y="548.706460359"/>
      <point x="248.773223055" y="548.706460359" type="curve" smooth="yes"/>
      <point x="258.319157648" y="548.706460359"/>
      <point x="262.883034239" y="540.376174061"/>
      <point x="262.883034239" y="530.967227313" type="curve" smooth="yes"/>
      <point x="262.883034239" y="525.914918258"/>
      <point x="261.567107568" y="520.551593332"/>
      <point x="259.0" y="516.0" type="curve" smooth="yes"/>
      <point x="194.80078125" y="402.122070312"/>
      <point x="72.0" y="363.0"/>
      <point x="-1.0" y="363.0" type="curve" smooth="yes"/>
      <point x="-106.0" y="363.0"/>
      <point x="-161.0" y="394.0"/>
      <point x="-187.20703125" y="439.99609375" type="curve" smooth="yes"/>
      <point x="-191.377279213" y="447.31517032"/>
      <point x="-193.187470528" y="454.387097893"/>
      <point x="-193.187470528" y="460.57796702" type="curve" smooth="yes"/>
      <point x="-193.187470528" y="473.147565001"/>
      <point x="-185.725319993" y="482.085176295"/>
      <point x="-175.403220455" y="482.085176295" type="curve" smooth="yes"/>
      <point x="-168.14889048" y="482.085176295"/>
      <point x="-159.481968266" y="477.67069186"/>
    </contour>
  </outline>
</glyph>
<glyph name="uni05D1_quotesingle" format="2">
  <advance width="274"/>
  <outline>
    <contour>
      <point x="59.0" y="0.0" type="curve" smooth="yes"/>
      <point x="-29.0457757445" y="0.0"/>
      <point x="-69.9510006507" y="46.5801163005"/>
      <point x="-69.9510006507" y="67.9538667077" type="curve" smooth="yes"/>
      <point x="-69.9510006507" y="74.317700016"/>
      <point x="-66.3247743085" y="78.4470024495"/>
      <point x="-59.2369002173" y="78.4470024495" type="curve" smooth="yes"/>
      <point x="-56.8739633474" y="78.4470024495"/>
      <point x="-54.1262973016" y="77.9880698148"/>
      <point x="-51.0" y="77.0" type="curve" smooth="yes"/>
      <point x="-37.8808720993" y="72.8536847189"/>
      <point x="-1.93075262039" y="45.616357917"/>
      <point x="49.4446393642" y="45.616357917" type="curve" smooth="yes"/>
      <point x="52.8942939714" y="45.616357917"/>
      <point x="56.413494838" y="45.7391599093"/>
      <point x="60.0" y="46.0" type="curve" smooth="yes"/>
      <point x="115.0" y="50.0"/>
      <point x="161.672473868" y="93.0"/>
      <point x="166.0" y="147.0" type="curve" smooth="yes"/>
      <point x="166.202148438" y="149.522460938"/>
      <point x="166.299804688" y="151.952148438"/>
      <point x="166.299804688" y="154.290039062" type="curve" smooth="yes"/>
      <point x="166.299804688" y="192.068359375"/>
      <point x="138.0" y="208.0"/>
      <point x="106.0" y="208.0" type="curve" smooth="yes"/>
      <point x="71.0" y="208.0"/>
      <point x="56.0" y="193.782226562"/>
      <point x="40.0" y="185.0" type="curve" smooth="yes"/>
      <point x="33.4838935855" y="181.423379823"/>
      <point x="27.9273484021" y="180.000925028"/>
      <point x="23.3532465374" y="180.000925028" type="curve" smooth="yes"/>
      <point x="15.9939008806" y="180.000925028"/>
      <point x="11.1777184928" y="183.683106705"/>
      <point x="9.0" y="188.0" type="curve" smooth="yes"/>
      <point x="8.3836876563" y="189.221716504"/>
      <point x="8.08600972551" y="190.567132153"/>
      <point x="8.08600972551" y="192.013850274" type="curve" smooth="yes"/>
      <point x="8.08600972551" y="211.881109299"/>
      <point x="64.223721128" y="250.852535604"/>
      <point x="122.2265625" y="250.92578125" type="curve" smooth="yes"/>
      <point x="122.452091347" y="250.925923634" type="line" smooth="yes"/>
      <point x="178.919399901" y="250.925923634"/>
      <point x="243.553702044" y="224.153661419"/>
      <point x="243.553702044" y="159.363207318" type="curve" smooth="yes"/>
      <point x="243.553702044" y="159.072979539"/>
      <point x="243.552405106" y="158.781988894"/>
      <point x="243.549804688" y="158.490234375" type="curve" smooth="yes"/>
      <point x="243.515755461" y="154.670073613"/>
      <point x="243.362304688" y="150.83203125"/>
      <point x="243.0" y="147.0" type="curve" smooth="yes"/>
      <point x="234.018054595" y="51.9995855277"/>
      <point x="149.0" y="0.0"/>
    </contour>
    <contour>
      <point x="176.0" y="564.0" type="curve" smooth="yes"/>
      <point x="179.449933393" y="569.218574054"/>
      <point x="186.571056305" y="575.059623402"/>
      <point x="198.720240248" y="575.059623402" type="curve" smooth="yes"/>
      <point x="205.72303537" y="575.059623402"/>
      <point x="214.396340825" y="573.119007877"/>
      <point x="225.0" y="568.0" type="curve" smooth="yes"/>
      <point x="238.675385082" y="561.398089961"/>
      <point x="243.527611375" y="552.766911616"/>
      <point x="243.527611375" y="545.06526283" type="curve" smooth="yes"/>
      <point x="243.527611375" y="540.964414406"/>
      <point x="242.151919851" y="537.127103965"/>
      <point x="240.0" y="534.0" type="curve" smooth="yes"/>
      <point x="212.475585938" y="494.000976562"/>
      <point x="151.262695312" y="427.950195312"/>
      <point x="120.0" y="421.0" type="curve" smooth="yes"/>
      <point x="116.712998801" y="420.269351482"/>
      <point x="113.59034192" y="419.930913827"/>
      <point x="110.677571247" y="419.930913827" type="curve" smooth="yes"/>
      <point x="97.2158659846" y="419.930913827"/>
      <point x="88.237188895" y="427.159714441"/>
      <point x="88.237188895" y="436.309115457" type="curve" smooth="yes"/>
      <point x="88.237188895" y="437.82791347"/>
      <point x="88.4846044883" y="439.39963537"/>
      <point x="89.0" y="441.0" type="curve" smooth="yes"/>
      <point x="93.8310546875" y="456.0"/>
      <point x="125.7578125" y="488.000976562"/>
    </contour>
  </outline>
</glyph>
<glyph name="uni05D2.alt" format="2">
  <advance width="364"/>
  <outline>
    <contour>
      <point x="-11.0" y="7.0" type="curve" smooth="yes"/>
      <point x="-0.818181818182" y="7.72727272727"/>
      <point x="9.09917355372" y="8.02479338843"/>
      <point x="18.7520661157" y="8.02479338843" type="curve" smooth="yes"/>
      <point x="62.1900826446" y="8.02479338843"/>
      <point x="100.272727273" y="2.0"/>
      <point x="133.0" y="2.0" type="curve" smooth="yes"/>
      <point x="208.0" y="2.0"/>
      <point x="243.0" y="100.0"/>
      <point x="243.0" y="178.0" type="curve" smooth="yes"/>
      <point x="243.0" y="210.0"/>
      <point x="278.0" y="219.0"/>
      <point x="314.0" y="219.0" type="curve" smooth="yes"/>
      <point x="324.0" y="219.0"/>
      <point x="334.0" y="213.0"/>
      <point x="334.0" y="200.0" type="curve" smooth="yes"/>
      <point x="334.0" y="92.0"/>
      <point x="236.0" y="-44.0"/>
      <point x="132.0" y="-44.0" type="curve" smooth="yes"/>
      <point x="104.0" y="-44.0"/>
      <point x="65.1111111111" y="-39.7654320988"/>
      <point x="32.2716049383" y="-39.7654320988" type="curve" smooth="yes"/>
      <point x="22.8888888889" y="-39.7654320988"/>
      <point x="14.0" y="-40.1111111111"/>
      <point x="6.0" y="-41.0" type="curve" smooth="yes"/>
      <point x="-53.0" y="-47.5546875"/>
      <point x="-78.21875" y="-69.0947265625"/>
      <point x="-126.0" y="-75.0" type="curve" smooth="yes"/>
      <point x="-141.555780841" y="-76.9226245983"/>
      <point x="-156.121687394" y="-77.7832674296"/>
      <point x="-169.584499098" y="-77.7832674296" type="curve" smooth="yes"/>
      <point x="-233.147087396" y="-77.7832674296"/>
      <point x="-272.120472225" y="-58.5985874301"/>
      <point x="-274.588867188" y="-41.4189453125" type="curve" smooth="yes"/>
      <point x="-274.705077758" y="-40.6102580224"/>
      <point x="-274.766886583" y="-39.8229331482"/>
      <point x="-274.766886583" y="-39.0683881913" type="curve" smooth="yes"/>
      <point x="-274.766886583" y="-34.7294297748"/>
      <point x="-272.723026216" y="-31.4744197048"/>
      <point x="-267.226833874" y="-31.4744197048" type="curve" smooth="yes"/>
      <point x="-266.658971209" y="-31.4744197048"/>
      <point x="-266.054255333" y="-31.5091665296"/>
      <point x="-265.411132812" y="-31.5810546875" type="curve" smooth="yes"/>
      <point x="-245.574009638" y="-33.7973977318"/>
      <point x="-228.850727936" y="-34.7617891408"/>
      <point x="-214.367544986" y="-34.7617891408" type="curve" smooth="yes"/>
      <point x="-128.526171876" y="-34.7617891408"/>
      <point x="-121.377135629" y="-0.883723009448"/>
    </contour>
  </outline>
</glyph>
<glyph name="uni05D5.alt" format="2">
  <advance width="138"/>
  <outline>
    <contour>
      <point x="233.033203125" y="535.94140625" type="curve" smooth="yes"/>
      <point x="223.5343232" y="461.476053426"/>
      <point x="19.6316434733" y="-35.0873376667"/>
      <point x="-35.3380842826" y="-35.0873376667" type="curve" smooth="yes"/>
      <point x="-35.6440870034" y="-35.0873376667"/>
      <point x="-35.9454744851" y="-35.0719498111"/>
      <point x="-36.2421875" y="-35.041015625" type="curve" smooth="yes"/>
      <point x="-49.8086875256" y="-33.6264253619"/>
      <point x="-52.9932381477" y="-29.4377937603"/>
      <point x="-52.9932381477" y="-23.1269076655" type="curve" smooth="yes"/>
      <point x="-52.9932381477" y="-20.7156388895"/>
      <point x="-52.5283390339" y="-17.9945511311"/>
      <point x="-52.0" y="-15.0" type="curve" smooth="yes"/>
      <point x="-48.6611328125" y="3.943359375"/>
      <point x="89.115234375" y="319.579101562"/>
      <point x="157.25390625" y="542.004882812" type="curve" smooth="yes"/>
      <point x="161.996793046" y="557.486777369"/>
      <point x="172.251006285" y="560.861251728"/>
      <point x="185.35639182" y="560.861251728" type="curve" smooth="yes"/>
      <point x="189.928255531" y="560.861251728"/>
      <point x="194.847104009" y="560.450581632"/>
      <point x="200.0" y="560.0" type="curve" smooth="yes"/>
      <point x="200.99609375" y="559.912109375"/>
      <point x="200.99609375" y="559.912109375"/>
      <point x="201.9921875" y="559.825195312" type="curve" smooth="yes"/>
      <point x="220.26202212" y="558.226741494"/>
      <point x="233.361165019" y="556.9936629"/>
      <point x="233.361165019" y="540.737336453" type="curve" smooth="yes"/>
      <point x="233.361165019" y="539.26562864"/>
      <point x="233.253805329" y="537.670791302"/>
    </contour>
  </outline>
</glyph>
<glyph name="uni05D6_quotesingle" format="2">
  <advance width="180"/>
  <outline>
    <contour>
      <point x="182.0" y="564.0" type="curve" smooth="yes"/>
      <point x="185.449933393" y="569.218574054"/>
      <point x="192.571056305" y="575.059623402"/>
      <point x="204.720240248" y="575.059623402" type="curve" smooth="yes"/>
      <point x="211.72303537" y="575.059623402"/>
      <point x="220.396340825" y="573.119007877"/>
      <point x="231.0" y="568.0" type="curve" smooth="yes"/>
      <point x="244.675385082" y="561.398089961"/>
      <point x="249.527611375" y="552.766911616"/>
      <point x="249.527611375" y="545.06526283" type="curve" smooth="yes"/>
      <point x="249.527611375" y="540.964414406"/>
      <point x="248.151919851" y="537.127103965"/>
      <point x="246.0" y="534.0" type="curve" smooth="yes"/>
      <point x="218.475585938" y="494.000976562"/>
      <point x="157.262695312" y="427.950195312"/>
      <point x="126.0" y="421.0" type="curve" smooth="yes"/>
      <point x="122.712998801" y="420.269351482"/>
      <point x="119.59034192" y="419.930913827"/>
      <point x="116.677571247" y="419.930913827" type="curve" smooth="yes"/>
      <point x="103.215865985" y="419.930913827"/>
      <point x="94.237188895" y="427.159714441"/>
      <point x="94.237188895" y="436.309115457" type="curve" smooth="yes"/>
      <point x="94.237188895" y="437.82791347"/>
      <point x="94.4846044883" y="439.39963537"/>
      <point x="95.0" y="441.0" type="curve" smooth="yes"/>
      <point x="99.8310546875" y="456.0"/>
      <point x="131.7578125" y="488.000976562"/>
    </contour>
    <contour>
      <point x="-25.0" y="-1.0" type="curve" smooth="yes"/>
      <point x="-35.0" y="-1.0"/>
      <point x="-46.0" y="5.0"/>
      <point x="-46.0" y="18.0" type="curve" smooth="yes"/>
      <point x="-46.0" y="28.1982421875"/>
      <point x="46.0" y="274.0"/>
      <point x="146.0" y="274.0" type="curve" smooth="yes"/>
      <point x="165.0" y="274.0"/>
      <point x="179.0" y="257.0"/>
      <point x="179.0" y="238.0" type="curve" smooth="yes"/>
      <point x="179.0" y="201.0"/>
      <point x="152.0" y="166.0"/>
      <point x="128.0" y="166.0" type="curve" smooth="yes"/>
      <point x="113.0" y="166.0"/>
      <point x="94.1748046875" y="165.885742188"/>
      <point x="85.0" y="152.0" type="curve" smooth="yes"/>
      <point x="17.298828125" y="49.533203125"/>
      <point x="0.0" y="-1.0"/>
    </contour>
  </outline>
</glyph>
<glyph name="uni05E8.alt" format="2">
  <advance width="337"/>
  <outline>
    <contour>
      <point x="156.0" y="294.0" type="curve" smooth="yes"/>
      <point x="158.007477457" y="294.051906766"/>
      <point x="160.000080361" y="294.078027381"/>
      <point x="161.977319002" y="294.078027381" type="curve" smooth="yes"/>
      <point x="240.060958242" y="294.078027381"/>
      <point x="294.183117564" y="253.341377246"/>
      <point x="294.183117564" y="151.268763496" type="curve" smooth="yes"/>
      <point x="294.183117564" y="142.62336234"/>
      <point x="293.794853726" y="133.537946652"/>
      <point x="293.0" y="124.0" type="curve" smooth="yes"/>
      <point x="285.025390625" y="28.3076171875"/>
      <point x="204.999947136" y="-103.396246097"/>
      <point x="31.0" y="-142.0" type="curve" smooth="yes"/>
      <point x="29.796825971" y="-142.266937059"/>
      <point x="28.6477839539" y="-142.391732197"/>
      <point x="27.5556679533" y="-142.391732197" type="curve" smooth="yes"/>
      <point x="18.8016389377" y="-142.391732197"/>
      <point x="13.7051510429" y="-134.373546885"/>
      <point x="13.7051510429" y="-127.270983441" type="curve" smooth="yes"/>
      <point x="13.7051510429" y="-127.158604715"/>
      <point x="13.7064269204" y="-127.04645521"/>
      <point x="13.708984375" y="-126.934570312" type="curve" smooth="yes"/>
      <point x="13.9375262601" y="-116.936197203"/>
      <point x="26.1015625" y="-111.977539062"/>
      <point x="31.2001953125" y="-109.858398438" type="curve" smooth="yes"/>
      <point x="180.0" y="-48.0"/>
      <point x="207.887695312" y="46.9775390625"/>
      <point x="219.0" y="108.0" type="curve" smooth="yes"/>
      <point x="222.233703712" y="125.757672224"/>
      <point x="224.298122157" y="144.293937314"/>
      <point x="224.298122157" y="162.042553949" type="curve" smooth="yes"/>
      <point x="224.298122157" y="213.527137573"/>
      <point x="206.927190064" y="258.384097869"/>
      <point x="150.336618801" y="258.384097869" type="curve" smooth="yes"/>
      <point x="147.335779515" y="258.384097869"/>
      <point x="144.224659175" y="258.257965324"/>
      <point x="141.0" y="258.0" type="curve" smooth="yes"/>
      <point x="91.0" y="254.0"/>
      <point x="67.802734375" y="214.985351562"/>
      <point x="65.0" y="158.0" type="curve" smooth="yes"/>
      <point x="64.8983940814" y="155.934012988"/>
      <point x="64.8484069762" y="153.894858514"/>
      <point x="64.8484069762" y="151.883501002" type="curve" smooth="yes"/>
      <point x="64.8484069762" y="101.237012165"/>
      <point x="96.5424853784" y="68.2150508896"/>
      <point x="133.879740568" y="68.2150508896" type="curve" smooth="yes"/>
      <point x="138.840574191" y="68.2150508896"/>
      <point x="143.901028197" y="68.7979956611"/>
      <point x="149.0" y="70.0" type="curve" smooth="yes"/>
      <point x="158.030541194" y="72.1288114774"/>
      <point x="166.070745155" y="73.0580590009"/>
      <point x="172.901659199" y="73.0580590009" type="curve" smooth="yes"/>
      <point x="188.83149397" y="73.0580590009"/>
      <point x="198.184821033" y="68.0045119473"/>
      <point x="198.184821033" y="61.3256466148" type="curve" smooth="yes"/>
      <point x="198.184821033" y="57.2313029315"/>
      <point x="194.669788595" y="52.5261555808"/>
      <point x="187.0" y="48.0" type="curve" smooth="yes"/>
      <point x="164.070395785" y="34.4686027786"/>
      <point x="139.903693336" y="28.2376663281"/>
      <point x="116.835930419" y="28.2376663281" type="curve" smooth="yes"/>
      <point x="54.3915392879" y="28.2376663281"/>
      <point x="5.92234594698e-15" y="73.8969647606"/>
      <point x="0.0" y="144.0" type="curve" smooth="yes"/>
      <point x="0.0" y="238.004882812"/>
      <point x="61.0" y="291.54296875"/>
    </contour>
  </outline>
</glyph>
<glyph name="uni05E9_quotesingle" format="2">
  <advance width="413"/>
  <outline>
    <contour>
      <point x="161.0" y="44.0" type="curve" smooth="yes"/>
      <point x="213.0" y="48.7998046875"/>
      <point x="290.913580247" y="74.0"/>
      <point x="292.0" y="162.0" type="curve" smooth="yes"/>
      <point x="292.395031625" y="193.997561626"/>
      <point x="327.0" y="203.0"/>
      <point x="363.0" y="203.0" type="curve" smooth="yes"/>
      <point x="373.0" y="203.0"/>
      <point x="383.0" y="197.0"/>
      <point x="383.0" y="184.0" type="curve" smooth="yes"/>
      <point x="383.0" y="76.0"/>
      <point x="284.0" y="0.0"/>
      <point x="156.0" y="0.0" type="curve" smooth="yes"/>
      <point x="82.8154686867" y="0.0"/>
      <point x="52.8000936337" y="22.047077671"/>
      <point x="41.5196852857" y="38.6173487656" type="curve"/>
      <point x="16.5957139656" y="15.3311905945"/>
      <point x="-11.0639094195" y="0.017578125"/>
      <point x="-38.8017578125" y="0.017578125" type="curve" smooth="yes"/>
      <point x="-56.1043347298" y="0.017578125"/>
      <point x="-63.5527897189" y="5.75849238685"/>
      <point x="-63.5527897189" y="15.8874805579" type="curve" smooth="yes"/>
      <point x="-63.5527897189" y="25.5044421729"/>
      <point x="-54.8097941418" y="36.2529340337"/>
      <point x="-44.8017578125" y="38.017578125" type="curve" smooth="yes"/>
      <point x="-38.6941705278" y="39.7742831491"/>
      <point x="-32.7684719455" y="42.6264949237"/>
      <point x="-27.0342667986" y="46.4417866945" type="curve" smooth="yes"/>
      <point x="2.24443365364" y="68.7825670836"/>
      <point x="28.603183401" y="129.528153666"/>
      <point x="47.2060537097" y="184.647390825" type="curve"/>
      <point x="42.1230984074" y="190.022144181"/>
      <point x="30.6367779676" y="194.351996626"/>
      <point x="30.6367779676" y="219.72558671" type="curve" smooth="yes"/>
      <point x="30.6367779676" y="222.265481328"/>
      <point x="30.7518708547" y="225.016234116"/>
      <point x="31.0" y="228.0" type="curve" smooth="yes"/>
      <point x="32.92578125" y="251.15234375"/>
      <point x="50.0" y="284.0"/>
      <point x="96.0" y="284.0" type="curve" smooth="yes"/>
      <point x="114.391339108" y="284.0"/>
      <point x="142.929918842" y="282.308793229"/>
      <point x="147.401826252" y="249.378000322" type="curve"/>
      <point x="149.312759975" y="249.239294272"/>
      <point x="151.313831145" y="249.162304946"/>
      <point x="153.407659647" y="249.162304946" type="curve" smooth="yes"/>
      <point x="169.250029077" y="249.162304946"/>
      <point x="190.402542601" y="253.569766937"/>
      <point x="218.0" y="269.0" type="curve" smooth="yes"/>
      <point x="233.965793862" y="277.926832153"/>
      <point x="245.790778906" y="281.676821242"/>
      <point x="253.836355882" y="281.676821242" type="curve" smooth="yes"/>
      <point x="262.886803016" y="281.676821242"/>
      <point x="267.154810822" y="276.931608506"/>
      <point x="267.154810822" y="269.472221057" type="curve" smooth="yes"/>
      <point x="267.154810822" y="242.928814722"/>
      <point x="213.112714778" y="182.018158569"/>
      <point x="128.207167659" y="178.252353122" type="curve"/>
      <point x="116.389642488" y="142.020367672"/>
      <point x="94.7003440678" y="100.766467963"/>
      <point x="67.6961764325" y="67.0789719614" type="curve"/>
      <point x="80.4769205692" y="56.8230504743"/>
      <point x="100.550514257" y="43.066753659"/>
      <point x="141.625222802" y="43.066753659" type="curve" smooth="yes"/>
      <point x="147.621672963" y="43.066753659"/>
      <point x="154.06571462" y="43.359938164"/>
    </contour>
    <contour>
      <point x="226.0" y="564.0" type="curve" smooth="yes"/>
      <point x="229.449933393" y="569.218574054"/>
      <point x="236.571056305" y="575.059623402"/>
      <point x="248.720240248" y="575.059623402" type="curve" smooth="yes"/>
      <point x="255.72303537" y="575.059623402"/>
      <point x="264.396340825" y="573.119007877"/>
      <point x="275.0" y="568.0" type="curve" smooth="yes"/>
      <point x="288.675385082" y="561.398089961"/>
      <point x="293.527611375" y="552.766911616"/>
      <point x="293.527611375" y="545.06526283" type="curve" smooth="yes"/>
      <point x="293.527611375" y="540.964414406"/>
      <point x="292.151919851" y="537.127103965"/>
      <point x="290.0" y="534.0" type="curve" smooth="yes"/>
      <point x="262.475585938" y="494.000976562"/>
      <point x="201.262695312" y="427.950195312"/>
      <point x="170.0" y="421.0" type="curve" smooth="yes"/>
      <point x="166.712998801" y="420.269351482"/>
      <point x="163.59034192" y="419.930913827"/>
      <point x="160.677571247" y="419.930913827" type="curve" smooth="yes"/>
      <point x="147.215865985" y="419.930913827"/>
      <point x="138.237188895" y="427.159714441"/>
      <point x="138.237188895" y="436.309115457" type="curve" smooth="yes"/>
      <point x="138.237188895" y="437.82791347"/>
      <point x="138.484604488" y="439.39963537"/>
      <point x="139.0" y="441.0" type="curve" smooth="yes"/>
      <point x="143.831054688" y="456.0"/>
      <point x="175.7578125" y="488.000976562"/>
    </contour>
  </outline>
</glyph>
